<svg data-v-423bf9ae="" xmlns="http://www.w3.org/2000/svg" viewBox="0 0 509 90" class="iconLeft"><!----><!----><!----><g data-v-423bf9ae="" id="2a3afac2-5211-4c0e-86e5-dbe96ebb04d0" fill="black" transform="matrix(7.614213087388638,0,0,7.614213087388638,110.6852878021443,-32.51268839938719)"><path d="M2.15 14L2.15 14Q1.34 14 0.85 13.71L0.85 13.71Q0.31 13.40 0.31 12.80L0.31 12.80L0.31 9.28Q-0.09 8.71-0.09 7.88Q-0.09 7.05 0.31 6.44L0.31 6.44L1.36 6.44Q2.17 6.44 2.52 6.96L2.52 6.96Q2.34 7.15 2.21 7.44Q2.08 7.74 2.08 7.86Q2.08 7.99 2.15 8.05Q2.21 8.11 2.34 8.11L2.34 8.11Q2.58 7.16 3.25 6.72L3.25 6.72Q3.80 6.34 4.61 6.34L4.61 6.34Q5.63 6.34 6.20 6.77L6.20 6.77Q6.41 7.32 6.41 8.11Q6.41 8.90 6.09 9.54L6.09 9.54Q5.86 9.67 5.45 9.75Q5.04 9.84 4.62 9.84Q4.20 9.84 3.87 9.78Q3.54 9.72 3.39 9.67L3.39 9.67Q3.34 9.73 3.34 9.83Q3.34 9.93 3.47 9.98Q3.60 10.04 3.92 10.10L3.92 10.10L3.92 13.53Q3.17 14 2.15 14ZM13.21 9.19L13.21 10.53Q13.21 11.02 13.32 11.32Q13.43 11.62 13.70 11.79L13.70 11.79Q13.71 11.83 13.71 11.92L13.71 11.92L13.71 12.04Q13.71 13.02 13.12 13.56L13.12 13.56Q12.60 14.03 11.83 14.03L11.83 14.03Q11.31 14.03 10.88 13.79Q10.45 13.54 10.27 13.08L10.27 13.08Q10.04 13.08 10.04 13.30L10.04 13.30Q10.04 13.49 10.27 13.73L10.27 13.73Q9.83 14.03 8.93 14.03L8.93 14.03Q7.67 14.03 6.91 13.35Q6.16 12.66 6.16 11.43Q6.16 10.19 6.96 9.52L6.96 9.52Q7.69 8.91 8.85 8.91L8.85 8.91Q9.25 8.91 9.62 8.96L9.62 8.96Q9.86 9.01 9.88 9.02L9.88 9.02Q9.91 8.95 9.91 8.90L9.91 8.90Q9.91 8.72 9.60 8.66Q9.30 8.60 8.82 8.60L8.82 8.60Q7.79 8.60 7.05 9.02L7.05 9.02Q6.72 8.45 6.72 7.58L6.72 7.58Q6.72 7.09 6.84 6.85L6.84 6.85Q7.33 6.62 8.09 6.45Q8.85 6.28 9.69 6.28L9.69 6.28Q11.43 6.28 12.32 7.03Q13.21 7.79 13.21 9.19L13.21 9.19ZM9.66 10.86L9.66 10.86Q9.37 10.86 9.37 11.12L9.37 11.12Q9.37 11.37 9.71 11.37L9.71 11.37Q9.94 11.37 10.05 11.26Q10.16 11.14 10.16 10.86L10.16 10.86Q10.16 10.86 9.66 10.86ZM17.14 10.57L17.14 10.57L17.14 10.73Q17.14 10.85 17.14 10.90L17.14 10.90Q17.23 10.93 17.30 10.93L17.30 10.93Q17.50 10.93 17.50 10.66L17.50 10.66Q17.50 9.97 17.66 8.04L17.66 8.04Q17.75 6.99 17.77 6.81L17.77 6.81Q18.42 6.38 19.31 6.38Q20.21 6.38 20.71 6.86L20.71 6.86Q21.14 7.29 21.14 7.99L21.14 7.99Q21.14 8.46 21.01 8.97L21.01 8.97Q20.38 11.42 19.75 12.83L19.75 12.83Q19.41 13.56 18.73 13.83L18.73 13.83Q18.22 14.03 17.29 14.03L17.29 14.03Q16.79 14.03 16.30 13.95Q15.81 13.87 15.55 13.76L15.55 13.76Q14.56 11.74 13.92 9.28L13.92 9.28Q13.71 9.07 13.56 8.69Q13.41 8.31 13.41 7.90L13.41 7.90Q13.41 7.05 13.82 6.44L13.82 6.44Q13.82 6.44 15.52 6.44L15.52 6.44Q16.41 6.44 16.85 6.95L16.85 6.95Q17.18 7.33 17.27 8.06L17.27 8.06Q17.14 9.33 17.14 10.57ZM25.30 14.12L25.30 14.12Q23.41 14.12 22.31 13.07L22.31 13.07Q21.19 12.01 21.19 10.17Q21.19 8.33 22.35 7.25L22.35 7.25Q23.41 6.24 25.05 6.24Q26.68 6.24 27.67 7.14Q28.66 8.04 28.66 9.35L28.66 9.35Q28.66 10.52 27.84 11.12L27.84 11.12Q27.09 11.68 25.79 11.68L25.79 11.68Q24.82 11.68 24.15 11.27L24.15 11.27Q24.10 11.31 24.10 11.42L24.10 11.42Q24.10 11.63 24.64 11.80L24.64 11.80Q25.18 11.98 25.86 11.98Q26.55 11.98 27.11 11.81Q27.68 11.63 28.02 11.40L28.02 11.40Q28.18 11.54 28.28 11.93Q28.38 12.31 28.38 12.63Q28.38 12.95 28.32 13.19L28.32 13.19Q27.79 13.64 27.23 13.84L27.23 13.84Q26.43 14.12 25.30 14.12ZM25.21 9.50L25.21 9.50Q25.55 9.50 25.55 9.24L25.55 9.24Q25.55 8.99 25.19 8.99Q24.83 8.99 24.77 9.38L24.77 9.38Q24.96 9.50 25.21 9.50ZM33.04 14.12L33.04 14.12Q31.14 14.12 30.05 13.07L30.05 13.07Q28.93 12.01 28.93 10.17Q28.93 8.33 30.08 7.25L30.08 7.25Q31.15 6.24 32.79 6.24Q34.42 6.24 35.41 7.14Q36.39 8.04 36.39 9.35L36.39 9.35Q36.39 10.52 35.58 11.12L35.58 11.12Q34.83 11.68 33.53 11.68L33.53 11.68Q32.56 11.68 31.89 11.27L31.89 11.27Q31.83 11.31 31.83 11.42L31.83 11.42Q31.83 11.63 32.38 11.80L32.38 11.80Q32.92 11.98 33.60 11.98Q34.29 11.98 34.85 11.81Q35.42 11.63 35.76 11.40L35.76 11.40Q35.92 11.54 36.02 11.93Q36.12 12.31 36.12 12.63Q36.12 12.95 36.06 13.19L36.06 13.19Q35.53 13.64 34.97 13.84L34.97 13.84Q34.17 14.12 33.04 14.12ZM32.95 9.50L32.95 9.50Q33.29 9.50 33.29 9.24L33.29 9.24Q33.29 8.99 32.93 8.99Q32.57 8.99 32.51 9.38L32.51 9.38Q32.70 9.50 32.95 9.50ZM44.07 9.13L44.05 10.53Q44.05 11.02 44.16 11.32Q44.27 11.62 44.54 11.79L44.54 11.79Q44.55 11.83 44.55 11.92L44.55 11.92L44.55 12.04Q44.55 12.99 44.01 13.51Q43.46 14.03 42.60 14.03Q41.75 14.03 41.21 13.55L41.21 13.55Q40.59 13.00 40.59 11.87L40.59 11.87Q40.59 11.39 40.64 11.02Q40.68 10.66 40.70 10.50Q40.71 10.34 40.74 10.21Q40.76 10.07 40.76 9.80Q40.76 9.54 40.68 9.42Q40.61 9.30 40.49 9.30Q40.36 9.30 40.26 9.36L40.26 9.36L40.35 10.47Q40.23 11.16 40.23 11.94Q40.23 12.71 40.58 13.34L40.58 13.34Q39.91 14.03 38.70 14.03L38.70 14.03Q38.01 14.03 37.50 13.67L37.50 13.67Q36.91 13.26 36.91 12.58L36.91 12.58L36.91 9.28Q36.51 8.71 36.51 7.88Q36.51 7.05 36.91 6.44L36.91 6.44L38.13 6.44Q38.62 6.44 38.96 6.80L38.96 6.80Q38.66 7.08 38.66 7.27L38.66 7.27Q38.66 7.48 38.90 7.48L38.90 7.48Q39.20 6.96 39.82 6.62Q40.43 6.28 41.22 6.28L41.22 6.28Q42.40 6.28 43.14 6.86L43.14 6.86Q44.07 7.59 44.07 9.13L44.07 9.13ZM51.69 9.19L51.69 10.53Q51.69 11.02 51.80 11.32Q51.91 11.62 52.19 11.79L52.19 11.79Q52.19 11.83 52.19 11.92L52.19 11.92L52.19 12.04Q52.19 13.02 51.60 13.56L51.60 13.56Q51.08 14.03 50.32 14.03L50.32 14.03Q49.80 14.03 49.37 13.79Q48.94 13.54 48.75 13.08L48.75 13.08Q48.52 13.08 48.52 13.30L48.52 13.30Q48.52 13.49 48.76 13.73L48.76 13.73Q48.32 14.03 47.42 14.03L47.42 14.03Q46.16 14.03 45.40 13.35Q44.65 12.66 44.65 11.43Q44.65 10.19 45.45 9.52L45.45 9.52Q46.18 8.91 47.34 8.91L47.34 8.91Q47.74 8.91 48.10 8.96L48.10 8.96Q48.35 9.01 48.37 9.02L48.37 9.02Q48.39 8.95 48.39 8.90L48.39 8.90Q48.39 8.72 48.09 8.66Q47.79 8.60 47.30 8.60L47.30 8.60Q46.27 8.60 45.54 9.02L45.54 9.02Q45.21 8.45 45.21 7.58L45.21 7.58Q45.21 7.09 45.33 6.85L45.33 6.85Q45.82 6.62 46.58 6.45Q47.34 6.28 48.18 6.28L48.18 6.28Q49.92 6.28 50.80 7.03Q51.69 7.79 51.69 9.19L51.69 9.19ZM48.15 10.86L48.15 10.86Q47.86 10.86 47.86 11.12L47.86 11.12Q47.86 11.37 48.19 11.37L48.19 11.37Q48.43 11.37 48.54 11.26Q48.64 11.14 48.64 10.86L48.64 10.86Q48.64 10.86 48.15 10.86Z"></path></g><!----><g data-v-423bf9ae="" id="6b589be5-2e79-4b90-9452-fc39211878b5" transform="matrix(2.8125,0,0,2.8125,0,0)" stroke="none" fill="black"><path d="M16 1c8.271 0 15 6.729 15 15s-6.729 15-15 15S1 24.271 1 16 7.729 1 16 1m0-1C7.163 0 0 7.163 0 16s7.163 16 16 16 16-7.163 16-16S24.837 0 16 0z"></path><path d="M16 7.045L24.955 16 16 24.955 7.045 16 16 7.045m0-1.414L5.631 16 16 26.369 26.369 16 16 5.631z"></path><path d="M16 12.538L19.462 16 16 19.462 12.538 16 16 12.538m0-1.414L11.124 16 16 20.876 20.876 16 16 11.124z"></path></g><!----></svg>